<?xml version="1.0" encoding="UTF-8"?>
<svg xmlns="http://www.w3.org/2000/svg" xmlns:xlink="http://www.w3.org/1999/xlink" viewBox="0 0 200 200" width="200px" height="200px">
<g id="surface21162205">
<path style=" stroke:none;fill-rule:nonzero;fill:rgb(93.333334%,24.313726%,32.941177%);fill-opacity:1;" d="M 30 58 C 30 60.210938 28.210938 62 26 62 C 23.789062 62 22 60.210938 22 58 C 22 55.789062 23.789062 54 26 54 C 28.210938 54 30 55.789062 30 58 Z M 30 58 "/>
<path style=" stroke:none;fill-rule:nonzero;fill:rgb(90.588236%,29.803923%,23.529412%);fill-opacity:1;" d="M 156 26 C 156 27.105469 155.105469 28 154 28 C 152.894531 28 152 27.105469 152 26 C 152 24.894531 152.894531 24 154 24 C 155.105469 24 156 24.894531 156 26 Z M 156 26 "/>
<path style=" stroke:none;fill-rule:nonzero;fill:rgb(20.392157%,59.607846%,85.882354%);fill-opacity:1;" d="M 174 100 C 174 140.867188 140.867188 174 100 174 C 59.132812 174 26 140.867188 26 100 C 26 59.132812 59.132812 26 100 26 C 140.867188 26 174 59.132812 174 100 Z M 174 100 "/>
<path style=" stroke:none;fill-rule:nonzero;fill:rgb(90.588236%,29.803923%,23.529412%);fill-opacity:1;" d="M 174 30 C 174 34.417969 170.417969 38 166 38 C 161.582031 38 158 34.417969 158 30 C 158 25.582031 161.582031 22 166 22 C 170.417969 22 174 25.582031 174 30 Z M 174 30 "/>
<path style=" stroke:none;fill-rule:nonzero;fill:rgb(93.333334%,24.313726%,32.941177%);fill-opacity:1;" d="M 178 48 C 178 50.210938 176.210938 52 174 52 C 171.789062 52 170 50.210938 170 48 C 170 45.789062 171.789062 44 174 44 C 176.210938 44 178 45.789062 178 48 Z M 178 48 "/>
<path style=" stroke:none;fill-rule:nonzero;fill:rgb(100%,100%,100%);fill-opacity:1;" d="M 166 152 C 166 154.210938 164.210938 156 162 156 C 159.789062 156 158 154.210938 158 152 C 158 149.789062 159.789062 148 162 148 C 164.210938 148 166 149.789062 166 152 Z M 166 152 "/>
<path style=" stroke:none;fill-rule:nonzero;fill:rgb(100%,100%,100%);fill-opacity:1;" d="M 38 126 C 38 130.417969 34.417969 134 30 134 C 25.582031 134 22 130.417969 22 126 C 22 121.582031 25.582031 118 30 118 C 34.417969 118 38 121.582031 38 126 Z M 38 126 "/>
<path style=" stroke:none;fill-rule:nonzero;fill:rgb(93.333334%,24.313726%,32.941177%);fill-opacity:1;" d="M 54 174 C 54 176.210938 52.210938 178 50 178 C 47.789062 178 46 176.210938 46 174 C 46 171.789062 47.789062 170 50 170 C 52.210938 170 54 171.789062 54 174 Z M 54 174 "/>
<path style=" stroke:none;fill-rule:nonzero;fill:rgb(100%,100%,100%);fill-opacity:1;" d="M 42 107 C 42 109.761719 39.761719 112 37 112 C 34.238281 112 32 109.761719 32 107 C 32 104.238281 34.238281 102 37 102 C 39.761719 102 42 104.238281 42 107 Z M 42 107 "/>
<path style=" stroke:none;fill-rule:nonzero;fill:rgb(90.588236%,29.803923%,23.529412%);fill-opacity:1;" d="M 44 134 C 44 135.105469 43.105469 136 42 136 C 40.894531 136 40 135.105469 40 134 C 40 132.894531 40.894531 132 42 132 C 43.105469 132 44 132.894531 44 134 Z M 44 134 "/>
<path style=" stroke:none;fill-rule:nonzero;fill:rgb(100%,100%,100%);fill-opacity:1;" d="M 162 68 C 162 69.105469 161.105469 70 160 70 C 158.894531 70 158 69.105469 158 68 C 158 66.894531 158.894531 66 160 66 C 161.105469 66 162 66.894531 162 68 Z M 162 68 "/>
<path style=" stroke:none;fill-rule:nonzero;fill:rgb(98.039216%,74.901962%,50.980395%);fill-opacity:1;" d="M 138.242188 141.050781 C 137.433594 136.761719 135.683594 134.246094 131.558594 133 C 131.378906 132.945312 131.136719 132.859375 130.867188 132.753906 C 130.554688 132.617188 130.160156 132.457031 129.695312 132.277344 C 127.199219 131.222656 112.351562 125.742188 112.351562 125.742188 C 111.125 125.433594 110.328125 124.5625 109.871094 123.578125 C 109.109375 121.957031 109.402344 117.753906 109.402344 117.753906 C 109.402344 117.753906 103.195312 119.875 99.320312 120.601562 C 95.523438 120.96875 87.355469 116.054688 87.355469 116.054688 C 87.355469 116.054688 87.164062 122.128906 86.90625 123.480469 C 86.703125 124.539062 85.5625 125.4375 84.339844 125.746094 L 70.089844 130.910156 C 68.515625 131.324219 67.003906 131.910156 65.671875 132.734375 C 62.085938 134.949219 60.269531 138.273438 59.347656 141.054688 C 59.347656 141.054688 58.40625 147.6875 58.445312 147.925781 C 58.359375 148.851562 58.265625 149.875 58.171875 150.949219 C 73.699219 161.460938 86.171875 164.40625 107.570312 163.472656 C 117.292969 163.046875 131.769531 158.246094 139.351562 154.417969 C 138.949219 145.96875 138.242188 141.050781 138.242188 141.050781 Z M 138.242188 141.050781 "/>
<path style=" stroke:none;fill-rule:nonzero;fill:rgb(53.333336%,80.392158%,84.313726%);fill-opacity:1;" d="M 131.558594 133.082031 C 131.378906 133.027344 131.136719 132.941406 130.867188 132.835938 C 130.554688 132.699219 130.160156 132.539062 129.695312 132.359375 C 128.148438 131.707031 121.886719 129.363281 117.328125 127.671875 L 117.113281 127.613281 C 112.082031 130.195312 104.921875 134.066406 98.347656 134.066406 C 91.769531 134.066406 85.175781 130.566406 79.578125 127.613281 L 78.949219 127.78125 L 70.089844 130.992188 C 68.511719 131.40625 67 131.992188 65.671875 132.816406 C 62.085938 135.03125 60.269531 138.355469 59.34375 141.136719 C 59.34375 141.136719 58.40625 147.769531 58.445312 148.007812 C 58.355469 148.933594 58.265625 158.894531 58.171875 159.96875 C 73.699219 170.480469 86.171875 173.429688 107.566406 172.492188 C 117.289062 172.066406 131.765625 167.265625 139.351562 163.4375 C 138.949219 154.988281 138.242188 141.136719 138.242188 141.136719 C 137.433594 136.84375 135.683594 134.328125 131.558594 133.082031 Z M 131.558594 133.082031 "/>
<path style=" stroke:none;fill-rule:nonzero;fill:rgb(74.509805%,47.058824%,25.490198%);fill-opacity:1;" d="M 77.070312 92.710938 C 76.757812 92.019531 69.398438 75.59375 74.988281 64.425781 C 77.304688 59.796875 81.503906 56.769531 87.46875 55.421875 C 90.90625 53.050781 95.027344 51.75 99.101562 51.75 C 102.519531 51.75 105.839844 52.632812 108.96875 54.378906 C 110.628906 55.304688 111.972656 56.089844 113.097656 56.742188 C 116.660156 58.816406 117.863281 59.515625 119.984375 59.515625 C 120.21875 59.515625 120.464844 59.507812 120.722656 59.488281 L 120.980469 59.472656 C 121.285156 59.453125 121.582031 59.4375 121.863281 59.4375 C 123.710938 59.4375 124.230469 60.421875 124.339844 61.246094 C 124.617188 63.335938 123.882812 65.136719 123.238281 66.722656 C 122.652344 68.15625 122.152344 69.390625 122.492188 70.511719 C 126.167969 82.585938 120.46875 92.398438 120.226562 92.8125 L 118.34375 95.984375 L 118.367188 92.292969 C 118.367188 92.195312 118.398438 82.847656 116.179688 76.867188 C 113.339844 78.453125 109.890625 79.285156 106.125 79.285156 C 99.632812 79.285156 92.453125 76.914062 85.320312 72.425781 C 78.980469 77.40625 78.984375 92.144531 78.984375 92.296875 L 79.011719 96.964844 Z M 77.070312 92.710938 "/>
<path style=" stroke:none;fill-rule:nonzero;fill:rgb(27.843139%,16.862746%,16.078432%);fill-opacity:1;" d="M 99.101562 52.75 C 102.125 52.75 105.320312 53.488281 108.480469 55.253906 C 115.550781 59.195312 116.863281 60.511719 119.980469 60.511719 C 120.234375 60.511719 120.5 60.503906 120.78125 60.484375 C 121.148438 60.464844 121.519531 60.433594 121.859375 60.433594 C 122.628906 60.433594 123.242188 60.59375 123.347656 61.375 C 123.839844 65.058594 120.65625 67.90625 121.535156 70.796875 C 125.125 82.585938 119.367188 92.296875 119.367188 92.296875 C 119.367188 92.296875 119.4375 81.53125 116.65625 75.398438 C 113.792969 77.289062 110.195312 78.277344 106.125 78.277344 C 99.96875 78.277344 92.726562 76.019531 85.285156 71.210938 C 77.894531 76.125 77.984375 92.296875 77.984375 92.296875 C 77.984375 92.296875 63.992188 61.574219 87.882812 56.355469 C 90.914062 54.214844 94.84375 52.75 99.101562 52.75 M 99.101562 50.75 C 94.890625 50.75 90.632812 52.074219 87.0625 54.488281 C 80.886719 55.929688 76.527344 59.121094 74.09375 63.976562 C 68.292969 75.570312 75.839844 92.414062 76.160156 93.128906 L 80.023438 101.605469 L 79.980469 92.289062 C 79.964844 88.359375 80.941406 77.886719 85.414062 73.660156 C 92.5 77.996094 99.632812 80.285156 106.125 80.285156 C 109.605469 80.285156 112.835938 79.597656 115.605469 78.285156 C 117.394531 84.070312 117.367188 92.195312 117.367188 92.289062 L 117.316406 99.671875 L 121.085938 93.320312 C 121.339844 92.890625 127.253906 82.707031 123.449219 70.214844 C 123.210938 69.4375 123.652344 68.355469 124.160156 67.101562 C 124.820312 65.480469 125.640625 63.464844 125.328125 61.113281 C 125.242188 60.484375 124.746094 58.433594 121.859375 58.433594 C 121.558594 58.433594 121.238281 58.453125 120.914062 58.472656 L 120.660156 58.488281 C 120.421875 58.503906 120.195312 58.511719 119.980469 58.511719 C 118.199219 58.511719 117.265625 58.007812 113.597656 55.875 C 112.46875 55.21875 111.121094 54.4375 109.453125 53.507812 C 106.175781 51.679688 102.695312 50.75 99.101562 50.75 Z M 99.101562 50.75 "/>
<path style=" stroke:none;fill-rule:nonzero;fill:rgb(0%,64.705884%,64.705884%);fill-opacity:1;" d="M 71.804688 168.425781 C 71.472656 168.425781 71.207031 168.15625 71.207031 167.824219 L 71.207031 159.925781 C 71.207031 159.59375 71.472656 159.324219 71.804688 159.324219 C 72.136719 159.324219 72.40625 159.59375 72.40625 159.925781 L 72.40625 167.824219 C 72.40625 168.15625 72.136719 168.425781 71.804688 168.425781 Z M 71.804688 168.425781 "/>
<path style=" stroke:none;fill-rule:nonzero;fill:rgb(0%,64.705884%,64.705884%);fill-opacity:1;" d="M 124.460938 169.816406 C 124.128906 169.816406 123.863281 169.546875 123.863281 169.214844 L 123.863281 159.925781 C 123.863281 159.59375 124.128906 159.324219 124.460938 159.324219 C 124.792969 159.324219 125.0625 159.59375 125.0625 159.925781 L 125.0625 169.214844 C 125.0625 169.546875 124.792969 169.816406 124.460938 169.816406 Z M 124.460938 169.816406 "/>
<path style=" stroke:none;fill-rule:nonzero;fill:rgb(99.215686%,85.882354%,73.725492%);fill-opacity:1;" d="M 122.835938 88 C 122.601562 87.984375 122.363281 87.980469 122.117188 87.980469 C 120.1875 87.886719 120.351562 88.617188 120.4375 87.421875 C 120.59375 85.300781 119.585938 76.742188 119.585938 76.308594 C 119.585938 67.394531 110.277344 60.125 98.652344 59.722656 L 98.652344 59.699219 C 98.574219 59.699219 98.496094 59.710938 98.417969 59.710938 C 98.339844 59.710938 98.265625 59.699219 98.183594 59.699219 L 98.183594 59.722656 C 86.554688 60.128906 77.253906 67.394531 77.253906 76.308594 C 77.253906 76.742188 76.957031 85.34375 77.113281 87.464844 C 77.199219 88.65625 76.648438 87.886719 74.71875 87.980469 C 74.472656 87.980469 74.234375 87.984375 74 88 C 71.882812 88.140625 70.171875 89.488281 69.804688 91.15625 C 70.066406 91.3125 71.027344 98.617188 72.589844 101.496094 C 73.460938 103.101562 74.820312 103.324219 76.21875 104.363281 C 76.992188 104.9375 77.140625 105.589844 77.355469 106.445312 C 78.136719 109.625 80.316406 112.328125 82.703125 114.636719 C 83.878906 115.777344 91.699219 124.113281 98.417969 123.691406 C 105.167969 123.4375 112.957031 115.777344 114.132812 114.636719 C 116.519531 112.328125 118.699219 109.625 119.480469 106.445312 C 119.695312 105.585938 119.84375 104.9375 120.617188 104.363281 C 122.015625 103.324219 123.375 103.105469 124.246094 101.496094 C 125.808594 98.617188 126.773438 91.3125 127.03125 91.15625 C 126.664062 89.488281 124.953125 88.140625 122.835938 88 Z M 122.835938 88 "/>
<path style=" stroke:none;fill-rule:nonzero;fill:rgb(31.764707%,17.254902%,16.862746%);fill-opacity:1;" d="M 98.539062 102.117188 C 99.902344 102.117188 101.226562 101.523438 102.078125 100.523438 C 102.164062 100.425781 102.152344 100.273438 102.054688 100.1875 C 101.953125 100.101562 101.804688 100.109375 101.714844 100.210938 C 101.023438 101.003906 99.863281 101.460938 98.539062 101.460938 C 97.210938 101.460938 96.054688 101.003906 95.359375 100.210938 C 95.3125 100.15625 95.246094 100.128906 95.179688 100.128906 C 95.121094 100.128906 95.066406 100.148438 95.023438 100.1875 C 94.921875 100.273438 94.910156 100.425781 94.996094 100.523438 C 95.847656 101.523438 97.171875 102.117188 98.539062 102.117188 Z M 98.539062 102.117188 "/>
<path style=" stroke:none;fill-rule:nonzero;fill:rgb(31.764707%,17.254902%,16.862746%);fill-opacity:1;" d="M 94.183594 83.664062 L 95.046875 82.003906 C 91.382812 81.144531 87.164062 81.28125 83.683594 82.359375 L 84.777344 83.980469 C 87.636719 83.039062 91.15625 82.917969 94.183594 83.664062 Z M 94.183594 83.664062 "/>
<path style=" stroke:none;fill-rule:nonzero;fill:rgb(31.764707%,17.254902%,16.862746%);fill-opacity:1;" d="M 112.523438 83.664062 L 113.390625 82.003906 C 109.726562 81.144531 105.507812 81.28125 102.027344 82.359375 L 103.117188 83.980469 C 105.980469 83.039062 109.503906 82.917969 112.523438 83.664062 Z M 112.523438 83.664062 "/>
<path style=" stroke:none;fill-rule:nonzero;fill:rgb(31.764707%,17.254902%,16.862746%);fill-opacity:1;" d="M 88.90625 86.015625 C 88.027344 86.015625 87.257812 86.597656 86.808594 87.476562 C 86.921875 87.441406 87.035156 87.417969 87.15625 87.417969 C 87.878906 87.417969 88.464844 88.070312 88.464844 88.875 C 88.464844 89.683594 87.878906 90.335938 87.15625 90.335938 C 86.921875 90.335938 86.703125 90.257812 86.511719 90.136719 C 86.820312 91.457031 87.777344 92.421875 88.910156 92.421875 C 90.292969 92.421875 91.414062 90.984375 91.414062 89.214844 C 91.410156 87.449219 90.289062 86.015625 88.90625 86.015625 Z M 88.90625 86.015625 "/>
<path style=" stroke:none;fill-rule:nonzero;fill:rgb(31.764707%,17.254902%,16.862746%);fill-opacity:1;" d="M 108.0625 86.015625 C 107.308594 86.015625 106.636719 86.441406 106.179688 87.109375 C 106.324219 87.050781 106.476562 87.011719 106.640625 87.011719 C 107.363281 87.011719 107.945312 87.664062 107.945312 88.46875 C 107.945312 89.277344 107.359375 89.929688 106.640625 89.929688 C 106.191406 89.929688 105.796875 89.675781 105.5625 89.292969 C 105.59375 91.027344 106.699219 92.417969 108.0625 92.417969 C 109.445312 92.417969 110.566406 90.984375 110.566406 89.214844 C 110.5625 87.449219 109.445312 86.015625 108.0625 86.015625 Z M 108.0625 86.015625 "/>
<path style=" stroke:none;fill-rule:nonzero;fill:rgb(31.764707%,17.254902%,16.862746%);fill-opacity:1;" d="M 109.125 105.828125 C 109.226562 105.746094 109.242188 105.597656 109.160156 105.492188 C 109.078125 105.390625 108.925781 105.375 108.820312 105.457031 C 106.566406 107.257812 102.816406 108.289062 98.539062 108.289062 C 94.261719 108.289062 90.515625 107.257812 88.257812 105.457031 C 88.210938 105.421875 88.160156 105.402344 88.105469 105.402344 C 88.035156 105.402344 87.964844 105.433594 87.917969 105.492188 C 87.835938 105.597656 87.851562 105.746094 87.953125 105.832031 C 90.5 107.914062 94.457031 109.15625 98.539062 109.15625 C 102.617188 109.15625 106.574219 107.914062 109.125 105.828125 Z M 109.125 105.828125 "/>
<path style=" stroke:none;fill-rule:nonzero;fill:rgb(31.764707%,17.254902%,16.862746%);fill-opacity:1;" d="M 101.332031 116.371094 C 101.457031 116.371094 101.558594 116.226562 101.558594 116.054688 C 101.558594 115.886719 101.457031 115.742188 101.332031 115.742188 L 96.191406 115.742188 C 96.066406 115.742188 95.960938 115.886719 95.960938 116.054688 C 95.960938 116.226562 96.066406 116.371094 96.191406 116.371094 Z M 101.332031 116.371094 "/>
<path style=" stroke:none;fill-rule:nonzero;fill:rgb(27.843139%,16.862746%,16.078432%);fill-opacity:1;" d="M 100.640625 173.925781 C 82.828125 173.925781 71.335938 170.363281 57.609375 161.066406 C 57.308594 160.863281 57.140625 160.515625 57.171875 160.152344 C 57.191406 159.9375 57.199219 159.203125 57.214844 158.140625 C 57.28125 153.777344 57.414062 144.699219 58.378906 141.148438 C 59.6875 136.3125 61.601562 134.425781 65.140625 132.238281 C 66.464844 131.421875 68.042969 130.769531 69.832031 130.300781 L 83.992188 125.160156 C 84.996094 124.902344 85.804688 124.246094 85.917969 123.648438 C 85.976562 123.351562 86.089844 122.429688 86.222656 119.570312 C 84.164062 118.113281 82.484375 116.800781 82 116.324219 C 78.878906 113.273438 77.09375 110.488281 76.378906 107.5625 C 76.160156 106.671875 76.066406 106.359375 75.613281 106.023438 C 75.199219 105.710938 74.785156 105.480469 74.394531 105.257812 C 73.429688 104.714844 72.429688 104.148438 71.703125 102.792969 C 70.027344 99.664062 68.800781 93.753906 68.800781 91.867188 C 68.800781 91.792969 68.808594 91.722656 68.824219 91.652344 C 69.292969 89.484375 71.394531 87.847656 73.929688 87.679688 C 74.183594 87.660156 74.445312 87.652344 74.71875 87.65625 C 75.261719 87.632812 75.71875 87.671875 76.085938 87.71875 C 76.011719 85.308594 76.15625 80.203125 76.21875 77.894531 C 76.234375 77.316406 76.246094 76.9375 76.246094 76.851562 C 76.246094 67.375 85.753906 59.605469 97.929688 59.089844 C 98.019531 59.0625 98.101562 59.050781 98.207031 59.054688 L 98.414062 60.054688 L 98.453125 59.0625 C 98.535156 59.066406 98.609375 59.066406 98.695312 59.082031 C 110.96875 59.515625 120.578125 67.320312 120.578125 76.851562 C 120.585938 76.984375 120.652344 77.566406 120.738281 78.378906 C 121.132812 81.976562 121.542969 85.949219 121.429688 87.496094 L 121.421875 87.621094 C 121.566406 87.628906 121.734375 87.636719 121.898438 87.644531 L 122.160156 87.65625 C 122.378906 87.65625 122.640625 87.65625 122.902344 87.679688 C 125.433594 87.847656 127.53125 89.484375 128.003906 91.652344 C 128.015625 91.722656 128.023438 91.792969 128.023438 91.863281 C 128.023438 94.042969 126.722656 99.804688 125.125 102.792969 C 124.398438 104.144531 123.398438 104.710938 122.433594 105.257812 C 122.039062 105.476562 121.628906 105.707031 121.210938 106.019531 C 120.761719 106.359375 120.664062 106.671875 120.460938 107.523438 C 119.738281 110.484375 117.953125 113.273438 114.828125 116.324219 C 114.324219 116.820312 112.523438 118.289062 110.347656 119.859375 C 110.34375 121.574219 110.496094 122.921875 110.773438 123.511719 C 111.054688 124.109375 111.597656 124.878906 112.59375 125.132812 C 113.300781 125.386719 127.59375 130.660156 130.085938 131.714844 C 130.535156 131.886719 130.941406 132.054688 131.261719 132.191406 C 131.46875 132.269531 131.683594 132.351562 131.847656 132.398438 C 136.09375 133.683594 138.300781 136.320312 139.222656 141.222656 C 139.230469 141.265625 139.238281 141.3125 139.238281 141.355469 C 139.238281 141.355469 139.949219 155.210938 140.347656 163.660156 C 140.367188 164.054688 140.152344 164.421875 139.800781 164.601562 C 131.714844 168.683594 117.109375 173.347656 107.613281 173.761719 C 105.179688 173.867188 102.863281 173.925781 100.640625 173.925781 Z M 59.191406 159.71875 C 74.011719 169.648438 86.285156 172.691406 107.523438 171.761719 C 116.535156 171.367188 130.316406 167.019531 138.320312 163.101562 C 137.933594 154.972656 137.300781 142.554688 137.246094 141.523438 C 136.453125 137.394531 134.773438 135.371094 131.269531 134.308594 C 131.070312 134.253906 130.804688 134.15625 130.507812 134.042969 C 130.164062 133.894531 129.78125 133.738281 129.332031 133.5625 C 126.855469 132.519531 112.148438 127.09375 112.003906 127.035156 C 110.730469 126.71875 109.617188 125.757812 108.960938 124.359375 C 108.511719 123.394531 108.304688 121.699219 108.351562 119.320312 C 108.359375 119.003906 108.515625 118.707031 108.773438 118.527344 C 111.207031 116.792969 113.035156 115.28125 113.433594 114.894531 C 116.273438 112.113281 117.886719 109.632812 118.507812 107.089844 C 118.734375 106.144531 118.964844 105.207031 120.015625 104.421875 C 120.503906 104.050781 120.988281 103.777344 121.453125 103.515625 C 122.296875 103.035156 122.910156 102.691406 123.363281 101.847656 C 124.871094 99.035156 125.980469 93.804688 126.027344 91.976562 C 125.699219 90.738281 124.351562 89.777344 122.765625 89.671875 C 122.554688 89.65625 122.34375 89.660156 122.117188 89.65625 L 121.804688 89.640625 C 120.703125 89.589844 120.148438 89.5625 119.722656 89.074219 C 119.328125 88.628906 119.375 88.109375 119.414062 87.605469 L 119.4375 87.351562 C 119.546875 85.851562 119.011719 80.953125 118.753906 78.597656 C 118.648438 77.636719 118.582031 76.972656 118.582031 76.851562 C 118.582031 68.398438 109.808594 61.46875 98.613281 61.078125 C 98.5625 61.078125 98.515625 61.070312 98.464844 61.0625 C 98.421875 61.0625 98.386719 61.066406 98.390625 61.0625 L 98.386719 61.054688 C 98.332031 61.066406 98.273438 61.074219 98.214844 61.078125 C 87.019531 61.46875 78.246094 68.398438 78.246094 76.851562 C 78.246094 76.9375 78.238281 77.339844 78.21875 77.949219 C 78.15625 80.253906 77.984375 86.378906 78.105469 88.058594 C 78.128906 88.375 78.179688 89.035156 77.6875 89.484375 C 77.214844 89.914062 76.632812 89.824219 76.164062 89.753906 C 75.808594 89.695312 75.371094 89.625 74.765625 89.65625 C 74.492188 89.65625 74.277344 89.65625 74.070312 89.671875 C 72.484375 89.78125 71.132812 90.738281 70.804688 91.976562 C 70.855469 93.789062 72.039062 99.183594 73.46875 101.847656 C 73.921875 102.691406 74.535156 103.039062 75.378906 103.515625 C 75.84375 103.777344 76.328125 104.054688 76.816406 104.421875 C 77.867188 105.207031 78.09375 106.140625 78.3125 107.042969 C 78.945312 109.632812 80.558594 112.117188 83.398438 114.894531 C 83.792969 115.28125 85.550781 116.660156 87.820312 118.246094 C 88.105469 118.445312 88.265625 118.769531 88.246094 119.113281 C 88.132812 121.714844 88.007812 123.367188 87.882812 124.023438 C 87.574219 125.625 86.003906 126.710938 84.578125 127.070312 L 70.429688 132.207031 C 68.742188 132.652344 67.347656 133.226562 66.195312 133.9375 C 62.984375 135.921875 61.457031 137.433594 60.308594 141.671875 C 59.410156 144.980469 59.273438 154.222656 59.214844 158.171875 C 59.207031 158.808594 59.199219 159.339844 59.191406 159.71875 Z M 59.191406 159.71875 "/>
<path style=" stroke:none;fill-rule:nonzero;fill:rgb(53.725493%,36.470589%,23.921569%);fill-opacity:1;" d="M 122.960938 97.761719 L 121.765625 97.628906 L 122.167969 94.070312 L 120.144531 94.945312 L 119.671875 93.84375 L 122.640625 92.554688 C 122.839844 92.472656 123.0625 92.496094 123.234375 92.625 C 123.40625 92.75 123.5 92.960938 123.476562 93.175781 Z M 122.960938 97.761719 "/>
<path style=" stroke:none;fill-rule:nonzero;fill:rgb(53.725493%,36.470589%,23.921569%);fill-opacity:1;" d="M 74.523438 97.078125 L 74.007812 92.488281 C 73.984375 92.277344 74.074219 92.066406 74.246094 91.941406 C 74.417969 91.8125 74.648438 91.785156 74.84375 91.871094 L 77.8125 93.160156 L 77.339844 94.261719 L 75.316406 93.386719 L 75.71875 96.945312 Z M 74.523438 97.078125 "/>
<path style=" stroke:none;fill-rule:nonzero;fill:rgb(27.843139%,16.862746%,16.078432%);fill-opacity:1;" d="M 77.203125 105.960938 C 77.203125 105.960938 77.199219 105.960938 77.195312 105.960938 C 76.976562 105.957031 76.800781 105.773438 76.804688 105.550781 L 77.132812 88.257812 C 77.136719 88.039062 77.316406 87.867188 77.535156 87.867188 C 77.535156 87.867188 77.539062 87.867188 77.542969 87.867188 C 77.761719 87.871094 77.9375 88.054688 77.933594 88.273438 L 77.605469 105.566406 C 77.597656 105.785156 77.421875 105.960938 77.203125 105.960938 Z M 77.203125 105.960938 "/>
<path style=" stroke:none;fill-rule:nonzero;fill:rgb(27.843139%,16.862746%,16.078432%);fill-opacity:1;" d="M 119.960938 105.960938 C 119.742188 105.960938 119.566406 105.785156 119.5625 105.566406 L 119.234375 88.273438 C 119.230469 88.054688 119.40625 87.871094 119.625 87.867188 C 119.628906 87.867188 119.632812 87.867188 119.632812 87.867188 C 119.851562 87.867188 120.03125 88.039062 120.035156 88.257812 L 120.363281 105.550781 C 120.367188 105.773438 120.191406 105.957031 119.96875 105.960938 C 119.964844 105.960938 119.964844 105.960938 119.960938 105.960938 Z M 119.960938 105.960938 "/>
<path style=" stroke:none;fill-rule:nonzero;fill:rgb(27.843139%,16.862746%,16.078432%);fill-opacity:1;" d="M 98.640625 124.1875 C 94.394531 124.1875 87.246094 118.964844 86.933594 118.730469 C 86.710938 118.566406 86.660156 118.257812 86.824219 118.035156 C 86.992188 117.808594 87.304688 117.765625 87.523438 117.929688 C 87.601562 117.984375 95.300781 123.59375 99.042969 123.164062 C 102.875 122.730469 109.007812 118.410156 109.070312 118.367188 C 109.292969 118.207031 109.605469 118.257812 109.769531 118.484375 C 109.929688 118.710938 109.875 119.023438 109.648438 119.183594 C 109.386719 119.367188 103.242188 123.695312 99.15625 124.160156 C 98.988281 124.179688 98.816406 124.1875 98.640625 124.1875 Z M 98.640625 124.1875 "/>
<path style=" stroke:none;fill-rule:nonzero;fill:rgb(74.509805%,47.058824%,25.490198%);fill-opacity:1;" d="M 123.347656 61.5 C 123.195312 60.371094 121.980469 60.539062 120.78125 60.613281 C 117.035156 60.835938 116.121094 59.640625 108.480469 55.378906 C 100.863281 51.128906 93.070312 52.824219 87.878906 56.480469 C 63.988281 61.703125 77.980469 92.421875 77.980469 92.421875 C 77.980469 92.421875 77.890625 76.253906 85.28125 71.335938 C 97.652344 79.328125 109.457031 80.277344 116.652344 75.523438 C 119.433594 81.65625 119.363281 92.421875 119.363281 92.421875 C 119.363281 92.421875 125.121094 82.710938 121.53125 70.921875 C 120.652344 68.03125 123.835938 65.183594 123.347656 61.5 Z M 123.347656 61.5 "/>
<path style=" stroke:none;fill-rule:nonzero;fill:rgb(27.843139%,16.862746%,16.078432%);fill-opacity:1;" d="M 120.25 92.339844 L 119.25 92.332031 C 119.25 92.226562 119.285156 82.203125 116.769531 76.167969 C 108.917969 80.867188 96.867188 79.238281 85.070312 71.847656 C 78.128906 76.765625 78.128906 92.175781 78.132812 92.332031 L 77.132812 92.339844 C 77.128906 91.664062 77.128906 75.839844 84.789062 70.828125 C 84.953125 70.722656 85.164062 70.722656 85.328125 70.828125 C 97.132812 78.316406 109.160156 79.921875 116.722656 75.019531 C 116.847656 74.941406 116.996094 74.917969 117.132812 74.957031 C 117.273438 75 117.386719 75.097656 117.449219 75.230469 C 120.289062 81.394531 120.253906 91.894531 120.25 92.339844 Z M 120.25 92.339844 "/>
</g>
</svg>
